<?xml version="1.0" encoding="UTF-8"?>
<svg id="Layer_1" data-name="Layer 1" xmlns="http://www.w3.org/2000/svg" viewBox="0 0 1920 702">
  <defs>
    <style>
      .cls-1 {
        letter-spacing: -.03em;
      }

      .cls-2 {
        fill: #ff931e;
      }

      .cls-2, .cls-3, .cls-4 {
        stroke-width: 2px;
      }

      .cls-2, .cls-3, .cls-4, .cls-5 {
        stroke: #4d4d4d;
        stroke-miterlimit: 10;
      }

      .cls-3 {
        fill: #3fa9f5;
      }

      .cls-4 {
        fill: #7ac943;
      }

      .cls-6 {
        font-family: MyriadPro-Regular, 'Myriad Pro';
        font-size: 72px;
      }

      .cls-7 {
        letter-spacing: 0em;
      }

      .cls-5 {
        fill: none;
        stroke-width: 10px;
      }

      .cls-8 {
        letter-spacing: 0em;
      }

      .cls-9 {
        letter-spacing: 0em;
      }

      .cls-10 {
        letter-spacing: 0em;
      }
    </style>
  </defs>
  <line class="cls-5" x1="100" y1="226" x2="1800" y2="226"/>
  <circle class="cls-4" cx="100" cy="226" r="30"/>
  <circle class="cls-3" cx="1798" cy="226" r="30"/>
  <path class="cls-5" d="m720,226s57.35,0,106,0c175-1,25,354.12,155,354,195.35-.18,817,0,817,0"/>
  <circle class="cls-4" cx="602" cy="226" r="30"/>
  <circle class="cls-2" cx="1278" cy="580" r="30"/>
  <circle class="cls-3" cx="1278" cy="226" r="30"/>
  <circle class="cls-2" cx="1798" cy="580" r="30"/>
  <text class="cls-6" transform="translate(1678.1 134.97)"><tspan class="cls-7" x="0" y="0">M</tspan><tspan x="58.32" y="0">ain</tspan></text>
  <text class="cls-6" transform="translate(1597.28 497.56)"><tspan class="cls-1" x="0" y="0">F</tspan><tspan x="32.83" y="0">e</tspan><tspan class="cls-8" x="68.9" y="0">a</tspan><tspan x="103.32" y="0">tu</tspan><tspan class="cls-9" x="166.82" y="0">r</tspan><tspan class="cls-10" x="189.65" y="0">e</tspan></text>
</svg>